<svg width="204" height="53" viewBox="0 0 204 53" fill="none" xmlns="http://www.w3.org/2000/svg">
<path d="M70.3593 31.3014H76.7861C79.3676 31.3014 80.9219 30.0458 80.9219 27.8754C80.9219 25.331 79.1176 24.0354 75.5156 24.0354H70.3593V31.3014ZM70.3593 20.5494H75.2318C78.4823 20.5494 80.1448 19.2538 80.1448 17.0566C80.1448 15.14 78.658 13.9512 76.259 13.9512H70.3593V20.5494ZM76.259 10.4251C81.2058 10.4251 84.2063 12.7625 84.2063 16.676C84.2625 17.7726 83.9755 18.8598 83.3842 19.7895C82.7929 20.7191 81.926 21.4462 80.9017 21.8716C80.4421 22.0119 80.4083 22.3258 80.9017 22.466C82.1381 22.8337 83.2138 23.6009 83.9563 24.6447C84.6989 25.6886 85.0654 26.9485 84.997 28.2227C84.997 32.3766 81.9627 34.8208 76.8064 34.8208H66.7574C66.705 34.8271 66.6518 34.8216 66.6018 34.8048C66.5518 34.788 66.5063 34.7603 66.4686 34.7237C66.431 34.6872 66.4021 34.6427 66.3843 34.5936C66.3664 34.5445 66.3599 34.492 66.3654 34.4401V10.8125C66.3601 10.7603 66.3667 10.7076 66.3845 10.6583C66.4023 10.6089 66.431 10.5641 66.4685 10.527C66.5061 10.49 66.5514 10.4616 66.6014 10.444C66.6513 10.4264 66.7046 10.4199 66.7574 10.4251H76.259Z" fill="#383E30"/>
<path d="M94.4175 27.5949C92.6874 27.5949 91.8765 28.403 91.8765 29.5984C91.8765 30.934 92.8293 31.7955 94.5256 31.7955C97.3166 31.7955 98.8371 30.4599 98.8371 27.8487V27.6016L94.4175 27.5949ZM91.1737 18.0717C92.4213 17.7061 93.7176 17.5282 95.0189 17.5441C99.79 17.5441 102.723 19.9884 102.723 24.2224V34.4468C102.728 34.4987 102.722 34.5511 102.704 34.6003C102.686 34.6494 102.657 34.6938 102.62 34.7304C102.582 34.767 102.537 34.7947 102.487 34.8115C102.437 34.8283 102.383 34.8338 102.331 34.8275H100.594C100.492 34.8401 100.389 34.8151 100.304 34.7572C100.219 34.6993 100.159 34.6126 100.135 34.5136L99.8238 33.425C99.6143 32.9375 99.398 32.9375 98.9385 33.3582C98.3156 33.9926 97.5614 34.4863 96.7274 34.8056C95.8933 35.1249 94.9993 35.2622 94.1066 35.2081C90.1802 35.2081 88.0245 33.2046 88.0245 29.939C88.0245 26.6733 90.2884 24.5964 94.4512 24.5964H98.8709V24.3827C98.8709 22.259 97.5193 21.1036 94.877 21.1036C93.9481 21.0894 93.0219 21.2064 92.1265 21.4509L90.8493 21.8383C90.7984 21.8579 90.7437 21.866 90.6892 21.8619C90.6348 21.8579 90.5819 21.8418 90.5346 21.8149C90.4872 21.788 90.4466 21.7509 90.4157 21.7064C90.3848 21.6619 90.3644 21.6111 90.356 21.5578L89.5788 18.9733C89.5589 18.923 89.5507 18.8689 89.5548 18.8151C89.5589 18.7613 89.5752 18.7091 89.6024 18.6623C89.6297 18.6155 89.6672 18.5753 89.7122 18.5448C89.7572 18.5142 89.8086 18.4941 89.8626 18.4858L91.2142 18.1051L91.1737 18.0717Z" fill="#383E30"/>
<path d="M110.13 19.6077C110.339 20.0218 110.555 20.0218 110.974 19.6411C111.533 18.9747 112.236 18.4405 113.031 18.0776C113.827 17.7147 114.694 17.5324 115.57 17.5441C116.47 17.5344 117.359 17.7429 118.159 18.1516C118.959 18.5603 119.646 19.1565 120.158 19.8882C120.618 20.3757 120.935 20.2689 121.361 19.8882C121.923 19.1474 122.654 18.5487 123.495 18.1413C124.336 17.7338 125.263 17.5292 126.2 17.5441C130.153 17.5441 132.417 20.0218 132.417 24.1423V34.4401C132.423 34.492 132.416 34.5445 132.398 34.5936C132.38 34.6427 132.352 34.6872 132.314 34.7237C132.276 34.7603 132.231 34.788 132.181 34.8048C132.131 34.8216 132.078 34.8271 132.025 34.8208H128.883C128.83 34.8271 128.777 34.8216 128.727 34.8048C128.677 34.788 128.632 34.7603 128.594 34.7237C128.556 34.6872 128.528 34.6427 128.51 34.5936C128.492 34.5445 128.485 34.492 128.491 34.4401V24.563C128.491 22.3658 127.579 21.0369 125.7 21.0369C122.997 21.0369 121.821 23.0938 121.821 26.306V34.4401C121.826 34.492 121.82 34.5445 121.802 34.5936C121.784 34.6427 121.755 34.6872 121.718 34.7237C121.68 34.7603 121.634 34.788 121.584 34.8048C121.534 34.8216 121.481 34.8271 121.429 34.8208H118.253C118.2 34.8271 118.147 34.8216 118.097 34.8048C118.047 34.788 118.002 34.7603 117.964 34.7237C117.926 34.6872 117.897 34.6427 117.879 34.5936C117.862 34.5445 117.855 34.492 117.861 34.4401V24.5296C117.861 22.3658 116.874 21.0369 115.07 21.0369C112.366 21.0369 111.184 23.0938 111.184 26.306V34.4401C111.189 34.4914 111.183 34.5432 111.165 34.5918C111.148 34.6403 111.12 34.6844 111.083 34.7209C111.046 34.7573 111.001 34.7852 110.952 34.8025C110.903 34.8197 110.851 34.826 110.799 34.8208H107.622C107.57 34.8271 107.517 34.8216 107.467 34.8048C107.417 34.788 107.371 34.7603 107.334 34.7237C107.296 34.6872 107.267 34.6427 107.249 34.5936C107.231 34.5445 107.225 34.492 107.23 34.4401V18.2787C107.225 18.2266 107.232 18.1739 107.25 18.1246C107.267 18.0752 107.296 18.0304 107.334 17.9933C107.371 17.9563 107.416 17.9279 107.466 17.9103C107.516 17.8926 107.57 17.8862 107.622 17.8914H109.386C109.438 17.8838 109.491 17.8872 109.542 17.9014C109.592 17.9156 109.639 17.9403 109.68 17.9737C109.72 18.0072 109.753 18.0487 109.775 18.0955C109.798 18.1423 109.811 18.1934 109.812 18.2453L110.13 19.581V19.6077Z" fill="#383E30"/>
<path d="M141.284 31.3013H147.71C150.285 31.3013 151.839 30.0458 151.839 27.8754C151.839 25.331 150.042 24.0354 146.433 24.0354H141.284V31.3013ZM141.284 20.5494H146.156C149.407 20.5494 151.062 19.2538 151.062 17.0566C151.062 15.14 149.582 13.9512 147.183 13.9512H141.284V20.5494ZM147.183 10.4251C152.123 10.4251 155.124 12.7625 155.124 16.676C155.182 17.7703 154.898 18.8558 154.31 19.7852C153.723 20.7146 152.86 21.443 151.839 21.8716C151.38 22.0119 151.346 22.3258 151.839 22.466C153.076 22.8326 154.153 23.5996 154.896 24.6437C155.638 25.6878 156.004 26.9483 155.935 28.2227C155.935 32.3765 152.9 34.8208 147.744 34.8208H137.668C137.616 34.826 137.564 34.8197 137.515 34.8025C137.466 34.7852 137.421 34.7573 137.384 34.7209C137.347 34.6844 137.319 34.6403 137.301 34.5918C137.284 34.5432 137.278 34.4914 137.283 34.4401V10.8125C137.277 10.7607 137.282 10.7081 137.299 10.6587C137.316 10.6093 137.344 10.5643 137.381 10.5271C137.418 10.4899 137.463 10.4614 137.513 10.4437C137.563 10.4261 137.616 10.4197 137.668 10.4251H147.183Z" fill="#383E30"/>
<path d="M171.937 33.0777C171.728 32.657 171.512 32.6904 171.126 33.0444C170.518 33.7276 169.767 34.2716 168.924 34.6384C168.081 35.0052 167.168 35.1859 166.247 35.168C162.226 35.168 159.787 32.6904 159.787 28.5766V18.2787C159.781 18.2266 159.788 18.1739 159.806 18.1246C159.824 18.0752 159.852 18.0304 159.89 17.9933C159.927 17.9563 159.973 17.9279 160.023 17.9103C160.073 17.8926 160.126 17.8862 160.179 17.8914H163.348C163.4 17.8872 163.453 17.8945 163.502 17.9126C163.551 17.9306 163.596 17.9592 163.632 17.9961C163.669 18.0331 163.697 18.0775 163.715 18.1263C163.732 18.1752 163.738 18.2272 163.733 18.2787V28.1358C163.733 30.3397 164.902 31.662 166.808 31.662C169.424 31.662 170.944 29.7787 170.944 26.3928V18.2787C170.939 18.2272 170.945 18.1752 170.963 18.1263C170.98 18.0775 171.008 18.0331 171.045 17.9961C171.082 17.9592 171.126 17.9306 171.175 17.9126C171.224 17.8945 171.277 17.8872 171.329 17.8914H174.472C174.524 17.8862 174.578 17.8926 174.628 17.9103C174.678 17.9279 174.723 17.9563 174.76 17.9933C174.798 18.0304 174.827 18.0752 174.845 18.1246C174.862 18.1739 174.869 18.2266 174.864 18.2787V34.4401C174.869 34.492 174.863 34.5445 174.845 34.5936C174.827 34.6427 174.798 34.6872 174.76 34.7237C174.723 34.7603 174.677 34.788 174.627 34.8048C174.577 34.8216 174.524 34.8271 174.472 34.8208H172.708C172.656 34.8283 172.604 34.8251 172.554 34.8113C172.504 34.7975 172.457 34.7734 172.417 34.7407C172.377 34.708 172.344 34.6673 172.321 34.6212C172.298 34.5752 172.284 34.5249 172.282 34.4735L171.964 33.0777H171.937Z" fill="#383E30"/>
<path d="M194.651 34.3667C194.826 34.6138 194.685 34.8208 194.367 34.8208H190.866C190.77 34.8247 190.675 34.8047 190.589 34.7627C190.502 34.7207 190.428 34.658 190.373 34.5804L187.933 30.7003C186.947 29.2378 185.96 28.029 184.014 28.029H183.487V34.4535C183.492 34.5048 183.486 34.5566 183.468 34.6051C183.451 34.6537 183.422 34.6978 183.386 34.7342C183.349 34.7707 183.304 34.7985 183.255 34.8158C183.206 34.8331 183.153 34.8394 183.102 34.8341H179.952C179.9 34.8394 179.848 34.8331 179.799 34.8158C179.75 34.7985 179.705 34.7707 179.668 34.7342C179.631 34.6978 179.603 34.6537 179.586 34.6051C179.568 34.5566 179.562 34.5048 179.567 34.4535V10.178C179.562 10.1267 179.568 10.0749 179.586 10.0264C179.603 9.97783 179.631 9.93373 179.668 9.89728C179.705 9.86084 179.75 9.83295 179.799 9.81567C179.848 9.79839 179.9 9.79213 179.952 9.79735H183.102C183.153 9.79213 183.206 9.79839 183.255 9.81567C183.304 9.83295 183.349 9.86084 183.386 9.89728C183.422 9.93373 183.451 9.97783 183.468 10.0264C183.486 10.0749 183.492 10.1267 183.487 10.178V24.5296H184.014C185.751 24.5296 186.771 23.027 187.724 21.6646L190.055 18.1385C190.11 18.0601 190.184 17.9964 190.27 17.9532C190.357 17.9101 190.452 17.8888 190.549 17.8914H194.016C194.333 17.8914 194.435 18.1051 194.293 18.3522L191.184 23.3008C190.462 24.4932 189.392 25.4427 188.116 26.0255C187.974 26.0923 187.933 26.2392 188.116 26.306C189.465 26.9158 190.606 27.8995 191.4 29.1376L194.651 34.3667Z" fill="#383E30"/>
<path d="M196.8 11.4402C196.797 10.8183 196.961 10.2067 197.274 9.66729C197.587 9.12788 198.039 8.67975 198.584 8.3682C199.133 8.05647 199.755 7.89295 200.388 7.89405C201.015 7.89299 201.631 8.05663 202.172 8.3682C202.735 8.66828 203.203 9.11675 203.524 9.66378C203.836 10.199 204 10.8059 204 11.4235C204 12.0412 203.836 12.648 203.524 13.1832C203.225 13.7385 202.776 14.2009 202.226 14.5189C201.815 14.7569 201.36 14.912 200.888 14.9753C200.416 15.0387 199.936 15.0089 199.475 14.8879C199.014 14.7668 198.583 14.5568 198.205 14.2699C197.827 13.9831 197.51 13.6251 197.273 13.2166C196.961 12.6756 196.798 12.063 196.8 11.4402ZM197.3 11.4402C197.296 11.9773 197.439 12.5054 197.712 12.9695C197.985 13.4336 198.376 13.8184 198.847 14.0848C199.315 14.3542 199.847 14.4949 200.388 14.4922C200.93 14.4966 201.462 14.3558 201.929 14.0848C202.397 13.8162 202.786 13.4318 203.058 12.9695C203.332 12.5067 203.477 11.98 203.477 11.4435C203.477 10.9071 203.332 10.3804 203.058 9.91756C202.788 9.45554 202.402 9.07108 201.936 8.80229C201.468 8.53111 200.934 8.38817 200.392 8.38817C199.849 8.38817 199.316 8.53111 198.847 8.80229C198.379 9.06654 197.989 9.44911 197.719 9.91088C197.439 10.3724 197.294 10.9019 197.3 11.4402ZM201.639 11.2532C201.498 11.4497 201.3 11.5989 201.071 11.6806L202.206 13.5438H201.402L200.415 11.8743H199.773V13.5438H199.064V9.34323H200.307C200.939 9.34323 201.551 9.51998 201.785 10.0805C201.937 10.4441 201.86 10.9314 201.639 11.2532ZM199.773 11.2933H200.287C200.704 11.3096 201.131 11.0433 201.132 10.5987C201.18 10.1237 200.663 9.89727 200.246 9.94427H199.746L199.773 11.2933Z" fill="#383E30"/>
<path d="M38.2625 39.0506C40.9851 36.3601 40.4639 33.1145 36.6583 29.3538L31.2638 24.0228L23.5009 31.6892L30.2415 38.3504C32.9641 41.0409 35.9499 41.351 38.2625 39.0506Z" fill="#56A446"/>
<path d="M26.8509 19.9471L20.1103 13.2858C17.3877 10.5953 14.4019 10.2853 12.0893 12.5857C9.36668 15.2762 9.88792 18.5218 13.6935 22.2825L19.088 27.6135L26.8509 19.9471Z" fill="#56A446"/>
<path d="M10.2624 26.2682C6.82629 22.8726 3.68368 22.5075 1.34064 24.8279C-0.683588 26.8533 -0.410316 29.6588 2.12503 32.1643L8.35964 38.3204L15.409 31.3491L10.2624 26.2682Z" fill="#56A446"/>
<path d="M49.0365 26.8083C51.086 24.8079 50.7874 21.9774 48.247 19.472L41.9922 13.3158L34.9428 20.2871L40.0894 25.3731C43.5205 28.7637 46.6681 29.1337 49.0112 26.8083H49.0365Z" fill="#56A446"/>
<path d="M44.6793 32.7094C44.0468 32.3743 43.6672 32.6744 44.0468 33.3345C45.4992 36.03 45.8332 40.1208 42.2199 43.6964C37.7767 48.0822 31.9571 47.4921 26.5322 42.1111L19.751 35.4149L9.23514 45.8068C9.13879 45.9116 9.00781 45.9789 8.86572 45.9969C12.2364 48.6602 16.2218 50.4577 20.4664 51.2289C24.7109 52.0001 29.0827 51.7211 33.1916 50.4168C37.3005 49.1125 41.0189 46.8234 44.015 43.7538C47.011 40.6841 49.1917 36.9294 50.3624 32.8244C48.5262 33.495 46.5013 33.4539 44.6945 32.7094H44.6793Z" fill="#56A446"/>
<path d="M5.67327 18.9269C6.30584 19.2619 6.68538 18.9669 6.30584 18.3018C4.85346 15.6113 4.5144 11.5205 8.1327 7.93984C12.5759 3.55403 18.3955 4.14414 23.8205 9.52513L30.6168 16.2214L41.1327 5.84445C41.2314 5.74005 41.3638 5.67286 41.5071 5.65442C38.136 2.99233 34.1507 1.19594 29.9064 0.425405C25.6622 -0.345128 21.291 -0.0658585 17.1825 1.23831C13.074 2.54249 9.35592 4.83104 6.35971 7.89993C3.36349 10.9688 1.18227 14.7227 0.010498 18.8268C1.8484 18.1564 3.87486 18.1975 5.68339 18.9419L5.67327 18.9269Z" fill="#56A446"/>
<path d="M66.3635 51.66V41.9858H69.7965V42.7095H67.176V46.4582H69.4131V47.1762H67.176V50.9362H69.7736V51.66H66.3635Z" fill="#383E30"/>
<path d="M71.1754 48.2505V47.5325H73.8015V48.2505H71.1754Z" fill="#383E30"/>
<path d="M76.7539 42.7095V51.66H75.9414V42.7095H74.3051V41.9858H78.3902V42.7095H76.7539Z" fill="#383E30"/>
<path d="M80.9992 45.3556C80.8169 45.3421 80.6338 45.3676 80.4624 45.4305C80.2909 45.4933 80.1353 45.592 80.006 45.7198C79.8767 45.8475 79.7768 46.0014 79.7132 46.1708C79.6496 46.3402 79.6238 46.5211 79.6375 46.7013V51.66H78.8594V44.745H79.6146V45.48C79.7018 45.3158 79.818 45.1683 79.9579 45.0447C80.2895 44.7635 80.7172 44.6179 81.1537 44.6376V45.3556H80.9992Z" fill="#383E30"/>
<path d="M82.1436 43.1562V42.178H83.1334V43.1562H82.1436ZM82.2523 51.6374V44.745H83.0247V51.66L82.2523 51.6374Z" fill="#383E30"/>
<path d="M87.9166 51.66L86.4061 48.0526L85.4849 49.4944V51.6543H84.7125V41.9858H85.4849V48.3693L87.6934 44.745H88.5345L86.8867 47.3911L88.7691 51.66H87.9166Z" fill="#383E30"/>
<path d="M90.2396 48.3184C90.2396 49.7263 90.2796 50.4217 90.5943 50.7779C90.6821 50.8766 90.7905 50.9555 90.9119 51.0092C91.0333 51.0628 91.165 51.09 91.298 51.0889C91.4298 51.0952 91.5614 51.0744 91.6846 51.0276C91.8077 50.9809 91.9196 50.9093 92.0132 50.8175C92.2323 50.5395 92.3384 50.1907 92.3108 49.8394H93.0717C93.0933 50.1032 93.0592 50.3686 92.9715 50.6188C92.8839 50.8689 92.7446 51.0983 92.5625 51.2925C92.3967 51.4541 92.1986 51.5798 91.9809 51.6616C91.7632 51.7433 91.5306 51.7794 91.298 51.7674C91.0632 51.7772 90.8289 51.7373 90.6109 51.6505C90.3929 51.5638 90.196 51.4321 90.0336 51.2642C89.5759 50.7779 89.4614 49.8507 89.4614 48.211C89.4614 46.5713 89.5587 45.6384 90.0336 45.1408C90.368 44.8186 90.8166 44.6382 91.2837 44.6382C91.7508 44.6382 92.1994 44.8186 92.5339 45.1408C93.0031 45.6384 93.106 46.5543 93.106 48.3184H90.2396ZM91.956 45.627C91.8732 45.5269 91.7682 45.4468 91.6492 45.3929C91.5302 45.339 91.4003 45.3127 91.2694 45.3161C91.137 45.3131 91.0055 45.3395 90.8847 45.3933C90.7639 45.4471 90.6569 45.527 90.5714 45.627C90.2968 45.9437 90.2396 46.5091 90.2281 47.7078H92.3279C92.3108 46.5091 92.2478 45.9437 91.9675 45.627H91.956Z" fill="#383E30"/>
<path d="M97.2598 51.2359C97.0854 51.4088 96.8774 51.545 96.6483 51.6364C96.4192 51.7277 96.1737 51.7723 95.9267 51.7674C95.6913 51.7764 95.4565 51.7373 95.237 51.6527C95.0175 51.568 94.8179 51.4396 94.6508 51.2755C94.4583 51.0778 94.3084 50.8436 94.21 50.5871C94.1117 50.3305 94.067 50.0569 94.0787 49.7828H94.8453C94.8297 49.968 94.8538 50.1543 94.9159 50.3296C94.978 50.505 95.0768 50.6654 95.2058 50.8006C95.2966 50.8925 95.4051 50.9655 95.5251 51.015C95.645 51.0645 95.7738 51.0897 95.9038 51.0889C96.0518 51.094 96.1992 51.0691 96.337 51.0156C96.4748 50.9621 96.6 50.8812 96.7048 50.7779C96.8119 50.6622 96.8948 50.5267 96.9488 50.3792C97.0028 50.2317 97.0268 50.0752 97.0195 49.9185C97.0328 49.6625 96.9734 49.4079 96.8479 49.1835C96.669 48.9381 96.4284 48.7432 96.1499 48.6181L95.2687 48.1375C94.9006 47.9466 94.5876 47.6664 94.359 47.3233C94.214 47.042 94.145 46.7284 94.1588 46.413C94.1606 46.1693 94.2122 45.9285 94.3105 45.705C94.4089 45.4816 94.5518 45.28 94.7309 45.1125C94.8961 44.955 95.0916 44.8317 95.3059 44.7501C95.5201 44.6686 95.7487 44.6303 95.9782 44.6376C96.2082 44.6247 96.4384 44.6592 96.6541 44.7391C96.8698 44.8189 97.0664 44.9422 97.2312 45.1012C97.4141 45.3029 97.5536 45.5392 97.6411 45.7958C97.7287 46.0524 97.7625 46.324 97.7404 46.5939H96.9566C96.9804 46.4149 96.9662 46.233 96.915 46.0597C96.8638 45.8865 96.7766 45.7256 96.6591 45.5875C96.5696 45.4965 96.4616 45.4253 96.3423 45.3785C96.223 45.3318 96.095 45.3105 95.9668 45.3161C95.8341 45.3081 95.7012 45.327 95.5762 45.3717C95.4512 45.4165 95.3368 45.486 95.2401 45.5762C95.1378 45.6855 95.0584 45.8137 95.0063 45.9534C94.9543 46.0931 94.9307 46.2416 94.9369 46.3904C94.9269 46.5969 94.9744 46.8023 95.0742 46.984C95.2419 47.2085 95.4643 47.3874 95.7207 47.5042L96.5904 47.9905C96.9738 48.1725 97.3001 48.4539 97.5345 48.8047C97.7251 49.1347 97.8202 49.5103 97.8091 49.8902C97.8122 50.1393 97.7652 50.3865 97.6709 50.6175C97.5766 50.8485 97.4369 51.0587 97.2598 51.2359Z" fill="#383E30"/>
<path d="M99.0621 53V50.614H100.012V52.3102L99.0621 53Z" fill="#383E30"/>
<path d="M108.405 52.0105L107.639 51.3829C107.263 51.6515 106.809 51.7906 106.346 51.7787C106.077 51.7902 105.809 51.7458 105.558 51.6484C105.308 51.551 105.081 51.4028 104.892 51.2133C104.32 50.5857 104.2 49.9072 104.2 46.8427C104.2 43.7781 104.297 43.094 104.892 42.4664C105.081 42.2769 105.308 42.1287 105.558 42.0313C105.809 41.9339 106.077 41.8895 106.346 41.901C106.617 41.8895 106.888 41.9339 107.141 42.0312C107.394 42.1285 107.624 42.2767 107.816 42.4664C108.388 43.094 108.503 43.7725 108.503 46.8427C108.503 49.5171 108.434 50.3312 108.062 50.9023L108.823 51.5412L108.405 52.0105ZM107.227 42.964C107.113 42.8476 106.976 42.7566 106.824 42.6971C106.672 42.6376 106.509 42.611 106.346 42.6191C106.185 42.6093 106.024 42.6351 105.874 42.6948C105.725 42.7545 105.591 42.8465 105.482 42.964C105.07 43.4332 105.013 43.993 105.013 46.8483C105.013 49.7036 105.07 50.2408 105.482 50.727C105.591 50.8445 105.725 50.9365 105.874 50.9962C106.024 51.0558 106.185 51.0817 106.346 51.0719C106.588 51.0852 106.829 51.0218 107.032 50.891L106.266 50.2408L106.678 49.7658L107.416 50.3765C107.667 49.9015 107.69 49.1665 107.69 46.8483C107.69 43.9704 107.639 43.4106 107.227 42.964Z" fill="#383E30"/>
<path d="M112.765 51.6599V51.0945C112.663 51.2615 112.526 51.4059 112.365 51.5186C112.131 51.6787 111.854 51.7636 111.569 51.7617C111.363 51.768 111.158 51.7298 110.968 51.6497C110.779 51.5696 110.609 51.4496 110.471 51.2981C110.31 51.1093 110.188 50.8904 110.115 50.6543C110.041 50.4182 110.016 50.1699 110.042 49.9241V44.7393H110.814V49.9411C110.814 50.6987 111.238 51.0719 111.775 51.0719C112.313 51.0719 112.754 50.7044 112.754 49.9411V44.7393H113.52V51.6543L112.765 51.6599Z" fill="#383E30"/>
<path d="M117.674 51.66V51.0324C117.579 51.2119 117.446 51.3698 117.285 51.496C117.049 51.6828 116.752 51.7791 116.45 51.7674C116.241 51.7732 116.034 51.7348 115.841 51.6548C115.649 51.5748 115.476 51.4551 115.334 51.3038C115 50.8535 114.84 50.3 114.882 49.7432C114.862 49.4581 114.902 49.1719 115.001 48.9031C115.1 48.6343 115.254 48.3889 115.454 48.1827C115.639 48.0173 115.857 47.8909 116.093 47.8112C116.329 47.7315 116.579 47.7001 116.828 47.7191H117.629V46.4808C117.629 45.7232 117.314 45.3048 116.667 45.3048C116.55 45.3034 116.433 45.3252 116.324 45.3689C116.215 45.4126 116.116 45.4773 116.032 45.5592C115.916 45.6907 115.828 45.8443 115.774 46.0106C115.72 46.1768 115.701 46.3522 115.718 46.526H114.945C114.929 46.2669 114.965 46.0071 115.053 45.7623C115.14 45.5174 115.277 45.2926 115.454 45.1012C115.615 44.9477 115.805 44.8276 116.013 44.748C116.222 44.6683 116.444 44.6308 116.667 44.6376C116.894 44.6211 117.122 44.6512 117.337 44.7261C117.552 44.8011 117.748 44.9192 117.915 45.0729C118.089 45.2679 118.221 45.4957 118.303 45.7425C118.386 45.9893 118.417 46.25 118.395 46.5091V51.66H117.674ZM117.674 48.3184H116.873C116.718 48.3085 116.562 48.3299 116.416 48.3814C116.269 48.4329 116.135 48.5135 116.021 48.6181C115.755 48.9341 115.624 49.3393 115.655 49.7489C115.655 50.58 115.952 51.1115 116.627 51.1115C117.302 51.1115 117.646 50.58 117.646 49.862L117.674 48.3184Z" fill="#383E30"/>
<path d="M122.618 51.66V51.0946C122.525 51.2632 122.393 51.4083 122.234 51.5186C122.002 51.6811 121.724 51.7663 121.439 51.7618C121.232 51.7644 121.028 51.7217 120.84 51.6366C120.652 51.5516 120.485 51.4263 120.352 51.2698C119.923 50.7949 119.831 49.9242 119.831 48.2053C119.831 46.4865 119.923 45.6214 120.352 45.1182C120.482 44.9582 120.648 44.8308 120.837 44.7463C121.026 44.6618 121.232 44.6226 121.439 44.6319C121.72 44.6224 121.997 44.6973 122.234 44.8468C122.378 44.9633 122.504 45.1005 122.606 45.2539V41.9801H123.373V51.6543L122.618 51.66ZM122.618 46.526C122.634 46.3549 122.614 46.1823 122.56 46.019C122.506 45.8556 122.418 45.7049 122.303 45.5761C122.121 45.4062 121.879 45.313 121.628 45.3161C121.502 45.3174 121.378 45.3459 121.264 45.3996C121.15 45.4533 121.05 45.5309 120.97 45.627C120.655 45.9833 120.609 46.6448 120.609 48.211C120.609 49.7772 120.655 50.4217 120.97 50.7892C121.051 50.8836 121.152 50.9593 121.265 51.0111C121.379 51.0628 121.503 51.0894 121.628 51.0889C121.879 51.092 122.121 50.9987 122.303 50.8288C122.418 50.6997 122.505 50.549 122.559 50.3857C122.613 50.2224 122.633 50.0501 122.618 49.8789V46.526Z" fill="#383E30"/>
<path d="M127.841 51.2359C127.667 51.4088 127.459 51.545 127.23 51.6364C127.001 51.7277 126.755 51.7723 126.508 51.7674C126.273 51.7764 126.038 51.7373 125.819 51.6527C125.599 51.568 125.4 51.4396 125.232 51.2755C125.04 51.0778 124.89 50.8436 124.792 50.5871C124.693 50.3305 124.649 50.0569 124.66 49.7828H125.433C125.417 49.968 125.441 50.1543 125.503 50.3296C125.565 50.505 125.664 50.6654 125.793 50.8006C125.884 50.893 125.992 50.9663 126.112 51.0159C126.232 51.0655 126.361 51.0903 126.491 51.0889C126.638 51.0939 126.785 51.0689 126.922 51.0154C127.059 50.9619 127.183 50.881 127.286 50.7779C127.504 50.5447 127.619 50.2356 127.607 49.9185C127.615 49.6565 127.548 49.3975 127.412 49.1722C127.231 48.9266 126.989 48.7318 126.709 48.6068L125.833 48.1262C125.465 47.9353 125.152 47.6551 124.924 47.312C124.787 47.0424 124.722 46.7426 124.735 46.4412C124.737 46.1976 124.788 45.9568 124.886 45.7333C124.985 45.5098 125.128 45.3083 125.307 45.1408C125.472 44.9832 125.668 44.86 125.882 44.7784C126.096 44.6968 126.325 44.6585 126.554 44.6658C126.784 44.6529 127.014 44.6875 127.23 44.7673C127.446 44.8471 127.642 44.9705 127.807 45.1295C127.99 45.3311 128.13 45.5675 128.217 45.8241C128.305 46.0807 128.338 46.3522 128.316 46.6222H127.544C127.568 46.4428 127.554 46.2603 127.502 46.0867C127.45 45.9132 127.361 45.7527 127.241 45.6157C127.153 45.5243 127.046 45.4528 126.927 45.4059C126.809 45.3591 126.682 45.3381 126.554 45.3443C126.421 45.3356 126.288 45.3543 126.163 45.399C126.038 45.4438 125.924 45.5137 125.828 45.6044C125.725 45.7137 125.646 45.8419 125.594 45.9816C125.542 46.1214 125.518 46.2699 125.524 46.4186C125.514 46.6252 125.562 46.8305 125.662 47.0123C125.829 47.2367 126.052 47.4157 126.308 47.5325L127.172 48.0187C127.557 48.2009 127.885 48.4821 128.122 48.8329C128.313 49.163 128.408 49.5386 128.396 49.9185C128.394 50.4126 128.194 50.8858 127.841 51.2359Z" fill="#383E30"/>
<path d="M137.242 51.66L136.487 50.5291C136.243 50.9115 135.905 51.2267 135.505 51.4452C135.105 51.6637 134.655 51.7784 134.198 51.7787C132.991 51.7787 132.03 50.9193 132.03 49.4436C132.03 48.2619 132.567 47.459 133.746 46.4016C132.808 45.0955 132.51 44.6319 132.51 43.8573C132.488 43.6085 132.518 43.3579 132.6 43.1216C132.682 42.8853 132.814 42.6687 132.986 42.4858C133.158 42.3029 133.367 42.1578 133.599 42.06C133.832 41.9622 134.083 41.9138 134.335 41.9179C134.582 41.8993 134.83 41.9336 135.062 42.0185C135.294 42.1034 135.505 42.2369 135.68 42.4098C135.855 42.5827 135.99 42.791 136.076 43.0204C136.162 43.2497 136.197 43.4947 136.178 43.7386C136.178 44.8694 135.737 45.5026 134.679 46.4921L136.498 49.1835C136.869 48.4818 137.09 47.7117 137.145 46.9218H137.889C137.823 47.9714 137.496 48.9889 136.939 49.8846L138.135 51.6769L137.242 51.66ZM134.141 46.984C133.231 47.8661 132.802 48.5502 132.802 49.3644C132.779 49.5738 132.8 49.7857 132.864 49.9867C132.927 50.1877 133.032 50.3736 133.172 50.5328C133.311 50.692 133.483 50.821 133.675 50.9118C133.867 51.0027 134.077 51.0533 134.29 51.0606C135.005 51.0606 135.537 50.5687 136.075 49.8902L134.141 46.984ZM134.347 42.5964C134.193 42.6035 134.042 42.6412 133.903 42.7073C133.764 42.7734 133.64 42.8665 133.539 42.9811C133.437 43.0957 133.36 43.2294 133.312 43.3741C133.264 43.5188 133.247 43.6716 133.26 43.8234C133.26 44.3888 133.466 44.7563 134.273 45.8871C134.988 45.1917 135.417 44.6941 135.417 43.7555C135.429 43.6089 135.41 43.4614 135.361 43.3223C135.313 43.1832 135.237 43.0553 135.136 42.9466C135.036 42.838 134.914 42.7508 134.778 42.6906C134.643 42.6303 134.496 42.5983 134.347 42.5964Z" fill="#383E30"/>
<path d="M143.61 42.7095V51.66H142.792V42.7095H141.156V41.9858H145.235V42.7095H143.61Z" fill="#383E30"/>
<path d="M148.159 51.66V51.0324C148.063 51.2119 147.93 51.3698 147.77 51.496C147.533 51.6828 147.237 51.7791 146.934 51.7674C146.721 51.7773 146.508 51.7409 146.31 51.6608C146.112 51.5807 145.935 51.4588 145.79 51.3038C145.456 50.8535 145.295 50.3 145.338 49.7432C145.318 49.4581 145.358 49.1719 145.457 48.9031C145.555 48.6343 145.71 48.3889 145.91 48.1827C146.095 48.0173 146.312 47.8909 146.548 47.8112C146.784 47.7315 147.035 47.7001 147.283 47.7191H148.084V46.4808C148.084 45.7232 147.77 45.3048 147.123 45.3048C147.005 45.3034 146.889 45.3252 146.78 45.3689C146.671 45.4126 146.571 45.4773 146.488 45.5592C146.372 45.6907 146.284 45.8443 146.23 46.0106C146.176 46.1768 146.156 46.3522 146.173 46.526H145.401C145.384 46.2669 145.421 46.0071 145.508 45.7623C145.596 45.5174 145.733 45.2926 145.91 45.1012C146.071 44.9477 146.261 44.8276 146.469 44.748C146.677 44.6683 146.9 44.6308 147.123 44.6376C147.35 44.6211 147.578 44.6512 147.793 44.7261C148.008 44.8011 148.204 44.9192 148.37 45.0729C148.545 45.2672 148.678 45.4949 148.761 45.7419C148.844 45.9889 148.874 46.25 148.851 46.5091V51.66H148.159ZM148.159 48.3184H147.369C147.214 48.3085 147.058 48.3299 146.912 48.3814C146.765 48.4329 146.631 48.5135 146.517 48.6181C146.254 48.9355 146.123 49.3397 146.15 49.7489C146.15 50.58 146.448 51.1115 147.123 51.1115C147.798 51.1115 148.142 50.58 148.142 49.862L148.159 48.3184Z" fill="#383E30"/>
<path d="M153.257 51.66V46.4582C153.257 45.6949 152.828 45.3274 152.295 45.3274C151.763 45.3274 151.317 45.6949 151.317 46.4582V51.66H150.55V44.745H151.306V45.3104C151.406 45.1438 151.541 44.9994 151.7 44.8864C151.943 44.7298 152.229 44.6509 152.519 44.6602C152.725 44.6565 152.931 44.697 153.12 44.7789C153.31 44.8609 153.479 44.9824 153.617 45.1351C153.777 45.3211 153.897 45.5373 153.97 45.7706C154.043 46.0039 154.067 46.2494 154.04 46.4921V51.6826L153.257 51.66Z" fill="#383E30"/>
<path d="M158.24 51.66V51.0946C158.147 51.2632 158.016 51.4083 157.857 51.5186C157.624 51.6811 157.346 51.7663 157.061 51.7618C156.855 51.7644 156.65 51.7217 156.462 51.6366C156.274 51.5516 156.107 51.4263 155.974 51.2698C155.545 50.7949 155.454 49.9242 155.454 48.2053C155.454 46.4865 155.545 45.6214 155.974 45.1182C156.104 44.9582 156.27 44.8308 156.459 44.7463C156.648 44.6618 156.854 44.6226 157.061 44.6319C157.342 44.6224 157.62 44.6973 157.857 44.8468C158.001 44.9633 158.126 45.1005 158.229 45.2539V41.9801H159.001V51.6543L158.24 51.66ZM158.24 46.526C158.256 46.3549 158.236 46.1823 158.182 46.019C158.128 45.8556 158.041 45.7049 157.925 45.5761C157.744 45.4052 157.501 45.3118 157.25 45.3161C157.124 45.3174 157 45.3459 156.886 45.3996C156.773 45.4533 156.672 45.5309 156.592 45.627C156.278 45.9833 156.232 46.6448 156.232 48.211C156.232 49.7772 156.278 50.4217 156.592 50.7892C156.673 50.8836 156.774 50.9593 156.888 51.0111C157.001 51.0628 157.125 51.0894 157.25 51.0889C157.501 51.0932 157.744 50.9998 157.925 50.8288C158.04 50.6997 158.127 50.549 158.181 50.3857C158.235 50.2224 158.255 50.0501 158.24 49.8789V46.526Z" fill="#383E30"/>
<path d="M161.227 48.3184C161.227 49.7263 161.267 50.4217 161.587 50.7779C161.673 50.8771 161.781 50.9563 161.901 51.0101C162.022 51.0638 162.153 51.0907 162.285 51.0889C162.417 51.0956 162.549 51.0749 162.672 51.0281C162.795 50.9814 162.907 50.9096 163 50.8175C163.221 50.5401 163.329 50.1913 163.304 49.8394H164.059C164.08 50.1032 164.046 50.3686 163.959 50.6188C163.871 50.8689 163.732 51.0983 163.55 51.2925C163.384 51.4541 163.186 51.5798 162.968 51.6616C162.75 51.7433 162.518 51.7794 162.285 51.7674C162.05 51.7772 161.816 51.7373 161.598 51.6505C161.38 51.5638 161.183 51.4321 161.021 51.2642C160.569 50.7779 160.449 49.8507 160.449 48.211C160.449 46.5713 160.546 45.6384 161.021 45.1408C161.355 44.8186 161.804 44.6382 162.271 44.6382C162.738 44.6382 163.187 44.8186 163.521 45.1408C163.99 45.6384 164.093 46.5543 164.093 48.3184H161.227ZM162.943 45.627C162.859 45.5278 162.754 45.4484 162.636 45.3946C162.517 45.3408 162.387 45.314 162.257 45.3161C162.123 45.3126 161.991 45.3388 161.869 45.3926C161.747 45.4464 161.639 45.5265 161.553 45.627C161.278 45.9437 161.221 46.5091 161.21 47.7078H163.298C163.304 46.5091 163.235 45.9437 162.96 45.627H162.943Z" fill="#383E30"/>
<path d="M170.902 51.66V46.4582C170.902 45.6949 170.478 45.3274 169.941 45.3274C169.403 45.3274 168.968 45.6949 168.968 46.4582V51.66H168.196V46.4582C168.196 45.6949 167.772 45.3274 167.234 45.3274C166.697 45.3274 166.256 45.6949 166.256 46.4582V51.66H165.489V44.745H166.25V45.3104C166.351 45.1438 166.485 44.9994 166.645 44.8863C166.881 44.7271 167.16 44.6424 167.446 44.6432C167.707 44.6521 167.963 44.7236 168.19 44.8516C168.417 44.9797 168.61 45.1604 168.751 45.3783C168.877 45.1853 169.04 45.0183 169.231 44.8863C169.482 44.7277 169.774 44.6433 170.072 44.6432C170.292 44.628 170.513 44.6629 170.717 44.7452C170.922 44.8276 171.104 44.9551 171.251 45.1182C171.412 45.3037 171.533 45.5197 171.607 45.753C171.681 45.9863 171.706 46.232 171.68 46.4752V51.6656L170.902 51.66Z" fill="#383E30"/>
<path d="M176.086 51.2359C175.911 51.4088 175.703 51.545 175.474 51.6364C175.245 51.7277 174.999 51.7723 174.752 51.7674C174.517 51.7763 174.282 51.7373 174.063 51.6526C173.843 51.568 173.644 51.4396 173.476 51.2755C173.284 51.0778 173.134 50.8436 173.036 50.5871C172.937 50.3305 172.893 50.0569 172.904 49.7828H173.688C173.673 49.9675 173.697 50.1532 173.758 50.3284C173.819 50.5036 173.916 50.6644 174.043 50.8005C174.135 50.8927 174.244 50.9657 174.365 51.0152C174.486 51.0647 174.616 51.0898 174.747 51.0889C174.894 51.0939 175.04 51.0689 175.177 51.0154C175.314 50.9619 175.438 50.881 175.542 50.7779C175.76 50.5447 175.875 50.2356 175.862 49.9185C175.871 49.6565 175.803 49.3975 175.668 49.1722C175.485 48.928 175.243 48.7335 174.964 48.6067L174.089 48.1262C173.721 47.9353 173.408 47.6551 173.179 47.312C173.042 47.0424 172.977 46.7426 172.99 46.4412C172.992 46.1976 173.044 45.9568 173.142 45.7333C173.24 45.5098 173.383 45.3083 173.562 45.1408C173.728 44.9832 173.923 44.86 174.137 44.7784C174.351 44.6968 174.58 44.6585 174.81 44.6658C175.039 44.654 175.269 44.689 175.485 44.7688C175.701 44.8485 175.897 44.9713 176.063 45.1295C176.246 45.3311 176.385 45.5675 176.473 45.8241C176.56 46.0807 176.594 46.3522 176.572 46.6222H175.799C175.824 46.4427 175.81 46.2602 175.757 46.0867C175.705 45.9132 175.616 45.7527 175.496 45.6157C175.408 45.5249 175.301 45.4538 175.182 45.407C175.064 45.3602 174.937 45.3388 174.81 45.3443C174.677 45.3356 174.544 45.3543 174.419 45.399C174.294 45.4438 174.179 45.5137 174.083 45.6044C173.981 45.7137 173.901 45.8419 173.849 45.9816C173.797 46.1213 173.774 46.2699 173.78 46.4186C173.77 46.6252 173.817 46.8305 173.917 47.0123C174.085 47.2367 174.307 47.4156 174.564 47.5325L175.428 48.0187C175.812 48.2009 176.141 48.4821 176.377 48.8329C176.568 49.163 176.663 49.5386 176.652 49.9185C176.646 50.4142 176.442 50.8876 176.086 51.2359Z" fill="#383E30"/>
<path d="M181.126 48.3184C181.126 49.7263 181.166 50.4217 181.487 50.7779C181.573 50.8771 181.68 50.9563 181.801 51.0101C181.921 51.0638 182.052 51.0907 182.185 51.0889C182.317 51.0956 182.448 51.0749 182.571 51.0281C182.695 50.9814 182.807 50.9096 182.9 50.8175C183.121 50.5401 183.229 50.1913 183.203 49.8394H183.987C184.01 50.1033 183.976 50.369 183.888 50.6193C183.801 50.8696 183.661 51.0989 183.478 51.2925C183.312 51.4541 183.114 51.5798 182.896 51.6616C182.678 51.7433 182.446 51.7794 182.213 51.7674C181.978 51.7772 181.744 51.7373 181.526 51.6505C181.308 51.5638 181.111 51.4321 180.949 51.2642C180.497 50.7779 180.377 49.8507 180.377 48.211C180.377 46.5713 180.468 45.6384 180.949 45.1408C181.283 44.8186 181.732 44.6382 182.199 44.6382C182.666 44.6382 183.115 44.8186 183.449 45.1408C183.918 45.6384 184.021 46.5543 184.021 48.3184H181.126ZM182.843 45.627C182.759 45.5278 182.654 45.4484 182.535 45.3946C182.416 45.3408 182.287 45.314 182.156 45.3161C182.023 45.3126 181.89 45.3388 181.769 45.3926C181.647 45.4464 181.539 45.5265 181.452 45.627C181.178 45.9437 181.126 46.5091 181.109 47.7078H183.197C183.22 46.5091 183.152 45.9437 182.877 45.627H182.843Z" fill="#383E30"/>
<path d="M185.406 51.66V50.6422H186.436V51.66H185.406Z" fill="#383E30"/>
<path d="M191.888 51.66L189.995 46.8766L189.045 48.7255V51.66H188.232V41.9858H189.045V47.2441L191.642 41.9858H192.512L190.504 45.9832L192.792 51.6373L191.888 51.66Z" fill="#383E30"/>
<path d="M193.759 51.66V50.6422H194.789V51.66H193.759Z" fill="#383E30"/>
</svg>
